<mxfile host="app.diagrams.net" agent="Mozilla/5.0 (Windows NT 10.0; Win64; x64) AppleWebKit/537.36 (KHTML, like Gecko) Chrome/136.0.0.0 Safari/537.36" version="27.1.1">
  <diagram name="Page-1" id="1smJJFbX06KqX_8hJyZF">
    <mxGraphModel dx="2276" dy="1851" grid="1" gridSize="10" guides="1" tooltips="1" connect="1" arrows="1" fold="1" page="1" pageScale="1" pageWidth="850" pageHeight="1100" math="0" shadow="0">
      <root>
        <mxCell id="0" />
        <mxCell id="1" parent="0" />
        <mxCell id="BXpB28k5xFH0rU9Z3lLQ-1" value="Address" style="ellipse;whiteSpace=wrap;html=1;align=center;" parent="1" vertex="1">
          <mxGeometry x="60" y="110" width="100" height="40" as="geometry" />
        </mxCell>
        <mxCell id="BXpB28k5xFH0rU9Z3lLQ-2" value="Customer" style="whiteSpace=wrap;html=1;align=center;" parent="1" vertex="1">
          <mxGeometry x="190" y="160" width="100" height="40" as="geometry" />
        </mxCell>
        <mxCell id="BXpB28k5xFH0rU9Z3lLQ-4" value="" style="endArrow=none;html=1;rounded=0;exitX=0.5;exitY=0;exitDx=0;exitDy=0;entryX=0.42;entryY=0.935;entryDx=0;entryDy=0;entryPerimeter=0;" parent="1" source="BXpB28k5xFH0rU9Z3lLQ-2" target="BXpB28k5xFH0rU9Z3lLQ-8" edge="1">
          <mxGeometry width="50" height="50" relative="1" as="geometry">
            <mxPoint x="470" y="290" as="sourcePoint" />
            <mxPoint x="610" y="320" as="targetPoint" />
          </mxGeometry>
        </mxCell>
        <mxCell id="BXpB28k5xFH0rU9Z3lLQ-6" value="Phone" style="ellipse;whiteSpace=wrap;html=1;align=center;" parent="1" vertex="1">
          <mxGeometry x="60" y="220" width="100" height="40" as="geometry" />
        </mxCell>
        <mxCell id="BXpB28k5xFH0rU9Z3lLQ-7" value="Email" style="ellipse;whiteSpace=wrap;html=1;align=center;" parent="1" vertex="1">
          <mxGeometry x="280" y="220" width="100" height="40" as="geometry" />
        </mxCell>
        <mxCell id="BXpB28k5xFH0rU9Z3lLQ-8" value="&lt;u&gt;Customer_ID&lt;/u&gt;" style="ellipse;whiteSpace=wrap;html=1;align=center;" parent="1" vertex="1">
          <mxGeometry x="175" y="60" width="100" height="40" as="geometry" />
        </mxCell>
        <mxCell id="BXpB28k5xFH0rU9Z3lLQ-9" value="Name" style="ellipse;whiteSpace=wrap;html=1;align=center;" parent="1" vertex="1">
          <mxGeometry x="340" y="150" width="100" height="40" as="geometry" />
        </mxCell>
        <mxCell id="BXpB28k5xFH0rU9Z3lLQ-10" value="" style="endArrow=none;html=1;rounded=0;exitX=1;exitY=0.25;exitDx=0;exitDy=0;entryX=0.076;entryY=0.725;entryDx=0;entryDy=0;entryPerimeter=0;" parent="1" source="BXpB28k5xFH0rU9Z3lLQ-2" target="BXpB28k5xFH0rU9Z3lLQ-9" edge="1">
          <mxGeometry width="50" height="50" relative="1" as="geometry">
            <mxPoint x="270" y="193" as="sourcePoint" />
            <mxPoint x="272" y="130" as="targetPoint" />
          </mxGeometry>
        </mxCell>
        <mxCell id="BXpB28k5xFH0rU9Z3lLQ-11" value="" style="endArrow=none;html=1;rounded=0;exitX=0.252;exitY=0.035;exitDx=0;exitDy=0;entryX=1;entryY=1;entryDx=0;entryDy=0;exitPerimeter=0;" parent="1" source="BXpB28k5xFH0rU9Z3lLQ-7" target="BXpB28k5xFH0rU9Z3lLQ-2" edge="1">
          <mxGeometry width="50" height="50" relative="1" as="geometry">
            <mxPoint x="340" y="243" as="sourcePoint" />
            <mxPoint x="342" y="180" as="targetPoint" />
          </mxGeometry>
        </mxCell>
        <mxCell id="BXpB28k5xFH0rU9Z3lLQ-12" value="" style="endArrow=none;html=1;rounded=0;exitX=0.924;exitY=0.335;exitDx=0;exitDy=0;entryX=0;entryY=1;entryDx=0;entryDy=0;exitPerimeter=0;" parent="1" source="BXpB28k5xFH0rU9Z3lLQ-6" target="BXpB28k5xFH0rU9Z3lLQ-2" edge="1">
          <mxGeometry width="50" height="50" relative="1" as="geometry">
            <mxPoint x="190" y="373" as="sourcePoint" />
            <mxPoint x="192" y="310" as="targetPoint" />
          </mxGeometry>
        </mxCell>
        <mxCell id="BXpB28k5xFH0rU9Z3lLQ-13" value="" style="endArrow=none;html=1;rounded=0;exitX=0.932;exitY=0.745;exitDx=0;exitDy=0;exitPerimeter=0;entryX=0;entryY=0;entryDx=0;entryDy=0;" parent="1" source="BXpB28k5xFH0rU9Z3lLQ-1" target="BXpB28k5xFH0rU9Z3lLQ-2" edge="1">
          <mxGeometry width="50" height="50" relative="1" as="geometry">
            <mxPoint x="270" y="373" as="sourcePoint" />
            <mxPoint x="170" y="170" as="targetPoint" />
          </mxGeometry>
        </mxCell>
        <mxCell id="BXpB28k5xFH0rU9Z3lLQ-14" value="Stock_level" style="ellipse;whiteSpace=wrap;html=1;align=center;" parent="1" vertex="1">
          <mxGeometry x="490" y="130" width="100" height="40" as="geometry" />
        </mxCell>
        <mxCell id="BXpB28k5xFH0rU9Z3lLQ-15" value="Product" style="whiteSpace=wrap;html=1;align=center;" parent="1" vertex="1">
          <mxGeometry x="630" y="170" width="100" height="40" as="geometry" />
        </mxCell>
        <mxCell id="BXpB28k5xFH0rU9Z3lLQ-16" value="" style="endArrow=none;html=1;rounded=0;exitX=0.08;exitY=0.045;exitDx=0;exitDy=0;entryX=1;entryY=1;entryDx=0;entryDy=0;exitPerimeter=0;" parent="1" source="BXpB28k5xFH0rU9Z3lLQ-15" target="BXpB28k5xFH0rU9Z3lLQ-19" edge="1">
          <mxGeometry width="50" height="50" relative="1" as="geometry">
            <mxPoint x="930" y="300" as="sourcePoint" />
            <mxPoint x="1070" y="330" as="targetPoint" />
          </mxGeometry>
        </mxCell>
        <mxCell id="BXpB28k5xFH0rU9Z3lLQ-17" value="Description" style="ellipse;whiteSpace=wrap;html=1;align=center;" parent="1" vertex="1">
          <mxGeometry x="490" y="200" width="100" height="40" as="geometry" />
        </mxCell>
        <mxCell id="BXpB28k5xFH0rU9Z3lLQ-18" value="Price" style="ellipse;whiteSpace=wrap;html=1;align=center;" parent="1" vertex="1">
          <mxGeometry x="510" y="20" width="100" height="40" as="geometry" />
        </mxCell>
        <mxCell id="BXpB28k5xFH0rU9Z3lLQ-19" value="&lt;u&gt;Product_ID&lt;/u&gt;" style="ellipse;whiteSpace=wrap;html=1;align=center;" parent="1" vertex="1">
          <mxGeometry x="500" y="71" width="100" height="40" as="geometry" />
        </mxCell>
        <mxCell id="BXpB28k5xFH0rU9Z3lLQ-20" value="Name" style="ellipse;whiteSpace=wrap;html=1;align=center;" parent="1" vertex="1">
          <mxGeometry x="770" y="120" width="100" height="40" as="geometry" />
        </mxCell>
        <mxCell id="BXpB28k5xFH0rU9Z3lLQ-21" value="" style="endArrow=none;html=1;rounded=0;exitX=1;exitY=0;exitDx=0;exitDy=0;entryX=0;entryY=0.5;entryDx=0;entryDy=0;" parent="1" source="BXpB28k5xFH0rU9Z3lLQ-15" target="BXpB28k5xFH0rU9Z3lLQ-20" edge="1">
          <mxGeometry width="50" height="50" relative="1" as="geometry">
            <mxPoint x="730" y="203" as="sourcePoint" />
            <mxPoint x="770" y="130" as="targetPoint" />
          </mxGeometry>
        </mxCell>
        <mxCell id="BXpB28k5xFH0rU9Z3lLQ-22" value="" style="endArrow=none;html=1;rounded=0;exitX=1;exitY=1;exitDx=0;exitDy=0;entryX=0.25;entryY=0;entryDx=0;entryDy=0;" parent="1" source="BXpB28k5xFH0rU9Z3lLQ-18" target="BXpB28k5xFH0rU9Z3lLQ-15" edge="1">
          <mxGeometry width="50" height="50" relative="1" as="geometry">
            <mxPoint x="800" y="253" as="sourcePoint" />
            <mxPoint x="802" y="190" as="targetPoint" />
          </mxGeometry>
        </mxCell>
        <mxCell id="BXpB28k5xFH0rU9Z3lLQ-23" value="" style="endArrow=none;html=1;rounded=0;exitX=0.924;exitY=0.335;exitDx=0;exitDy=0;entryX=0;entryY=1;entryDx=0;entryDy=0;exitPerimeter=0;" parent="1" source="BXpB28k5xFH0rU9Z3lLQ-17" target="BXpB28k5xFH0rU9Z3lLQ-15" edge="1">
          <mxGeometry width="50" height="50" relative="1" as="geometry">
            <mxPoint x="650" y="383" as="sourcePoint" />
            <mxPoint x="652" y="320" as="targetPoint" />
          </mxGeometry>
        </mxCell>
        <mxCell id="BXpB28k5xFH0rU9Z3lLQ-24" value="" style="endArrow=none;html=1;rounded=0;exitX=0.932;exitY=0.745;exitDx=0;exitDy=0;entryX=0;entryY=0.25;entryDx=0;entryDy=0;exitPerimeter=0;" parent="1" source="BXpB28k5xFH0rU9Z3lLQ-14" target="BXpB28k5xFH0rU9Z3lLQ-15" edge="1">
          <mxGeometry width="50" height="50" relative="1" as="geometry">
            <mxPoint x="730" y="383" as="sourcePoint" />
            <mxPoint x="732" y="320" as="targetPoint" />
          </mxGeometry>
        </mxCell>
        <mxCell id="BXpB28k5xFH0rU9Z3lLQ-25" value="Category_ID" style="ellipse;whiteSpace=wrap;html=1;align=center;" parent="1" vertex="1">
          <mxGeometry x="740" y="71" width="100" height="40" as="geometry" />
        </mxCell>
        <mxCell id="BXpB28k5xFH0rU9Z3lLQ-26" value="Vendor_ID" style="ellipse;whiteSpace=wrap;html=1;align=center;" parent="1" vertex="1">
          <mxGeometry x="720" y="20" width="100" height="40" as="geometry" />
        </mxCell>
        <mxCell id="BXpB28k5xFH0rU9Z3lLQ-27" value="" style="endArrow=none;html=1;rounded=0;exitX=0.5;exitY=0;exitDx=0;exitDy=0;entryX=0.224;entryY=0.955;entryDx=0;entryDy=0;entryPerimeter=0;" parent="1" source="BXpB28k5xFH0rU9Z3lLQ-15" target="BXpB28k5xFH0rU9Z3lLQ-26" edge="1">
          <mxGeometry width="50" height="50" relative="1" as="geometry">
            <mxPoint x="776" y="135" as="sourcePoint" />
            <mxPoint x="690" y="100" as="targetPoint" />
          </mxGeometry>
        </mxCell>
        <mxCell id="BXpB28k5xFH0rU9Z3lLQ-28" value="" style="endArrow=none;html=1;rounded=0;exitX=0.75;exitY=0;exitDx=0;exitDy=0;entryX=0;entryY=1;entryDx=0;entryDy=0;" parent="1" source="BXpB28k5xFH0rU9Z3lLQ-15" target="BXpB28k5xFH0rU9Z3lLQ-25" edge="1">
          <mxGeometry width="50" height="50" relative="1" as="geometry">
            <mxPoint x="816" y="175" as="sourcePoint" />
            <mxPoint x="730" y="140" as="targetPoint" />
          </mxGeometry>
        </mxCell>
        <mxCell id="BXpB28k5xFH0rU9Z3lLQ-29" value="FK" style="text;html=1;align=center;verticalAlign=middle;resizable=0;points=[];autosize=1;strokeColor=none;fillColor=none;" parent="1" vertex="1">
          <mxGeometry x="830" y="60" width="40" height="30" as="geometry" />
        </mxCell>
        <mxCell id="BXpB28k5xFH0rU9Z3lLQ-30" value="FK" style="text;html=1;align=center;verticalAlign=middle;resizable=0;points=[];autosize=1;strokeColor=none;fillColor=none;" parent="1" vertex="1">
          <mxGeometry x="770" y="-2" width="40" height="30" as="geometry" />
        </mxCell>
        <mxCell id="BXpB28k5xFH0rU9Z3lLQ-31" value="Total_amount" style="ellipse;whiteSpace=wrap;html=1;align=center;" parent="1" vertex="1">
          <mxGeometry x="50" y="438" width="100" height="40" as="geometry" />
        </mxCell>
        <mxCell id="BXpB28k5xFH0rU9Z3lLQ-32" value="Order" style="whiteSpace=wrap;html=1;align=center;" parent="1" vertex="1">
          <mxGeometry x="190" y="500" width="100" height="40" as="geometry" />
        </mxCell>
        <mxCell id="BXpB28k5xFH0rU9Z3lLQ-33" value="" style="endArrow=none;html=1;rounded=0;exitX=0.25;exitY=0;exitDx=0;exitDy=0;entryX=1;entryY=1;entryDx=0;entryDy=0;" parent="1" source="BXpB28k5xFH0rU9Z3lLQ-32" target="BXpB28k5xFH0rU9Z3lLQ-36" edge="1">
          <mxGeometry width="50" height="50" relative="1" as="geometry">
            <mxPoint x="490" y="630" as="sourcePoint" />
            <mxPoint x="630" y="660" as="targetPoint" />
          </mxGeometry>
        </mxCell>
        <mxCell id="BXpB28k5xFH0rU9Z3lLQ-34" value="Payment_amount" style="ellipse;whiteSpace=wrap;html=1;align=center;" parent="1" vertex="1">
          <mxGeometry x="80" y="573" width="100" height="40" as="geometry" />
        </mxCell>
        <mxCell id="BXpB28k5xFH0rU9Z3lLQ-35" value="Shipping Address" style="ellipse;whiteSpace=wrap;html=1;align=center;" parent="1" vertex="1">
          <mxGeometry x="190" y="600" width="100" height="40" as="geometry" />
        </mxCell>
        <mxCell id="BXpB28k5xFH0rU9Z3lLQ-36" value="&lt;u&gt;Order_ID&lt;/u&gt;" style="ellipse;whiteSpace=wrap;html=1;align=center;" parent="1" vertex="1">
          <mxGeometry x="100" y="391" width="100" height="40" as="geometry" />
        </mxCell>
        <mxCell id="BXpB28k5xFH0rU9Z3lLQ-37" value="Status" style="ellipse;whiteSpace=wrap;html=1;align=center;" parent="1" vertex="1">
          <mxGeometry x="310" y="570" width="100" height="40" as="geometry" />
        </mxCell>
        <mxCell id="BXpB28k5xFH0rU9Z3lLQ-38" value="" style="endArrow=none;html=1;rounded=0;entryX=0.084;entryY=0.295;entryDx=0;entryDy=0;entryPerimeter=0;exitX=1;exitY=1;exitDx=0;exitDy=0;" parent="1" source="BXpB28k5xFH0rU9Z3lLQ-32" target="BXpB28k5xFH0rU9Z3lLQ-37" edge="1">
          <mxGeometry width="50" height="50" relative="1" as="geometry">
            <mxPoint x="290" y="530" as="sourcePoint" />
            <mxPoint x="327.5999999999999" y="479" as="targetPoint" />
          </mxGeometry>
        </mxCell>
        <mxCell id="BXpB28k5xFH0rU9Z3lLQ-39" value="" style="endArrow=none;html=1;rounded=0;exitX=0.5;exitY=0;exitDx=0;exitDy=0;entryX=0.5;entryY=1;entryDx=0;entryDy=0;" parent="1" source="BXpB28k5xFH0rU9Z3lLQ-35" target="BXpB28k5xFH0rU9Z3lLQ-32" edge="1">
          <mxGeometry width="50" height="50" relative="1" as="geometry">
            <mxPoint x="360" y="583" as="sourcePoint" />
            <mxPoint x="362" y="520" as="targetPoint" />
          </mxGeometry>
        </mxCell>
        <mxCell id="BXpB28k5xFH0rU9Z3lLQ-40" value="" style="endArrow=none;html=1;rounded=0;exitX=0.924;exitY=0.335;exitDx=0;exitDy=0;entryX=0;entryY=1;entryDx=0;entryDy=0;exitPerimeter=0;" parent="1" source="BXpB28k5xFH0rU9Z3lLQ-34" target="BXpB28k5xFH0rU9Z3lLQ-32" edge="1">
          <mxGeometry width="50" height="50" relative="1" as="geometry">
            <mxPoint x="210" y="713" as="sourcePoint" />
            <mxPoint x="212" y="650" as="targetPoint" />
          </mxGeometry>
        </mxCell>
        <mxCell id="BXpB28k5xFH0rU9Z3lLQ-41" value="" style="endArrow=none;html=1;rounded=0;exitX=0.932;exitY=0.745;exitDx=0;exitDy=0;exitPerimeter=0;entryX=0;entryY=0;entryDx=0;entryDy=0;" parent="1" source="BXpB28k5xFH0rU9Z3lLQ-31" target="BXpB28k5xFH0rU9Z3lLQ-32" edge="1">
          <mxGeometry width="50" height="50" relative="1" as="geometry">
            <mxPoint x="290" y="713" as="sourcePoint" />
            <mxPoint x="180" y="500" as="targetPoint" />
          </mxGeometry>
        </mxCell>
        <mxCell id="BXpB28k5xFH0rU9Z3lLQ-42" value="Customer_ID" style="ellipse;whiteSpace=wrap;html=1;align=center;" parent="1" vertex="1">
          <mxGeometry x="310" y="438" width="100" height="40" as="geometry" />
        </mxCell>
        <mxCell id="BXpB28k5xFH0rU9Z3lLQ-43" value="Order_date" style="ellipse;whiteSpace=wrap;html=1;align=center;" parent="1" vertex="1">
          <mxGeometry x="260" y="391" width="100" height="40" as="geometry" />
        </mxCell>
        <mxCell id="BXpB28k5xFH0rU9Z3lLQ-44" value="" style="endArrow=none;html=1;rounded=0;exitX=0.75;exitY=0;exitDx=0;exitDy=0;entryX=0.224;entryY=0.955;entryDx=0;entryDy=0;entryPerimeter=0;" parent="1" source="BXpB28k5xFH0rU9Z3lLQ-32" target="BXpB28k5xFH0rU9Z3lLQ-43" edge="1">
          <mxGeometry width="50" height="50" relative="1" as="geometry">
            <mxPoint x="336" y="465" as="sourcePoint" />
            <mxPoint x="250" y="430" as="targetPoint" />
          </mxGeometry>
        </mxCell>
        <mxCell id="BXpB28k5xFH0rU9Z3lLQ-45" value="" style="endArrow=none;html=1;rounded=0;exitX=1;exitY=0;exitDx=0;exitDy=0;entryX=0.068;entryY=0.675;entryDx=0;entryDy=0;entryPerimeter=0;" parent="1" source="BXpB28k5xFH0rU9Z3lLQ-32" target="BXpB28k5xFH0rU9Z3lLQ-42" edge="1">
          <mxGeometry width="50" height="50" relative="1" as="geometry">
            <mxPoint x="376" y="505" as="sourcePoint" />
            <mxPoint x="290" y="470" as="targetPoint" />
          </mxGeometry>
        </mxCell>
        <mxCell id="BXpB28k5xFH0rU9Z3lLQ-46" value="FK" style="text;html=1;align=center;verticalAlign=middle;resizable=0;points=[];autosize=1;strokeColor=none;fillColor=none;" parent="1" vertex="1">
          <mxGeometry x="375" y="408" width="40" height="30" as="geometry" />
        </mxCell>
        <mxCell id="BXpB28k5xFH0rU9Z3lLQ-48" value="Price_at_order" style="ellipse;whiteSpace=wrap;html=1;align=center;" parent="1" vertex="1">
          <mxGeometry x="520" y="552" width="100" height="40" as="geometry" />
        </mxCell>
        <mxCell id="BXpB28k5xFH0rU9Z3lLQ-49" value="Order_Item" style="whiteSpace=wrap;html=1;align=center;" parent="1" vertex="1">
          <mxGeometry x="620" y="500" width="100" height="40" as="geometry" />
        </mxCell>
        <mxCell id="BXpB28k5xFH0rU9Z3lLQ-50" value="" style="endArrow=none;html=1;rounded=0;entryX=1;entryY=1;entryDx=0;entryDy=0;exitX=0;exitY=0;exitDx=0;exitDy=0;" parent="1" source="BXpB28k5xFH0rU9Z3lLQ-49" target="BXpB28k5xFH0rU9Z3lLQ-53" edge="1">
          <mxGeometry width="50" height="50" relative="1" as="geometry">
            <mxPoint x="600" y="502" as="sourcePoint" />
            <mxPoint x="1070" y="663" as="targetPoint" />
          </mxGeometry>
        </mxCell>
        <mxCell id="BXpB28k5xFH0rU9Z3lLQ-52" value="Quantity" style="ellipse;whiteSpace=wrap;html=1;align=center;" parent="1" vertex="1">
          <mxGeometry x="720" y="552" width="100" height="40" as="geometry" />
        </mxCell>
        <mxCell id="BXpB28k5xFH0rU9Z3lLQ-53" value="&lt;u&gt;Order_ID&lt;/u&gt;" style="ellipse;whiteSpace=wrap;html=1;align=center;" parent="1" vertex="1">
          <mxGeometry x="520" y="453" width="100" height="40" as="geometry" />
        </mxCell>
        <mxCell id="BXpB28k5xFH0rU9Z3lLQ-54" value="&lt;u&gt;Product_ID&lt;/u&gt;" style="ellipse;whiteSpace=wrap;html=1;align=center;" parent="1" vertex="1">
          <mxGeometry x="730" y="456" width="100" height="40" as="geometry" />
        </mxCell>
        <mxCell id="BXpB28k5xFH0rU9Z3lLQ-55" value="" style="endArrow=none;html=1;rounded=0;entryX=0.076;entryY=0.725;entryDx=0;entryDy=0;entryPerimeter=0;exitX=1;exitY=0;exitDx=0;exitDy=0;" parent="1" source="BXpB28k5xFH0rU9Z3lLQ-49" target="BXpB28k5xFH0rU9Z3lLQ-54" edge="1">
          <mxGeometry width="50" height="50" relative="1" as="geometry">
            <mxPoint x="714" y="470" as="sourcePoint" />
            <mxPoint x="732" y="473" as="targetPoint" />
          </mxGeometry>
        </mxCell>
        <mxCell id="BXpB28k5xFH0rU9Z3lLQ-56" value="" style="endArrow=none;html=1;rounded=0;exitX=0;exitY=0;exitDx=0;exitDy=0;entryX=1;entryY=1;entryDx=0;entryDy=0;" parent="1" source="BXpB28k5xFH0rU9Z3lLQ-52" target="BXpB28k5xFH0rU9Z3lLQ-49" edge="1">
          <mxGeometry width="50" height="50" relative="1" as="geometry">
            <mxPoint x="800" y="586" as="sourcePoint" />
            <mxPoint x="710" y="564" as="targetPoint" />
          </mxGeometry>
        </mxCell>
        <mxCell id="BXpB28k5xFH0rU9Z3lLQ-58" value="" style="endArrow=none;html=1;rounded=0;exitX=1;exitY=0;exitDx=0;exitDy=0;entryX=0;entryY=1;entryDx=0;entryDy=0;" parent="1" source="BXpB28k5xFH0rU9Z3lLQ-48" target="BXpB28k5xFH0rU9Z3lLQ-49" edge="1">
          <mxGeometry width="50" height="50" relative="1" as="geometry">
            <mxPoint x="730" y="716" as="sourcePoint" />
            <mxPoint x="732" y="653" as="targetPoint" />
          </mxGeometry>
        </mxCell>
        <mxCell id="BXpB28k5xFH0rU9Z3lLQ-59" value="Name" style="ellipse;whiteSpace=wrap;html=1;align=center;" parent="1" vertex="1">
          <mxGeometry x="1050" y="220" width="100" height="40" as="geometry" />
        </mxCell>
        <mxCell id="BXpB28k5xFH0rU9Z3lLQ-60" value="Category" style="whiteSpace=wrap;html=1;align=center;" parent="1" vertex="1">
          <mxGeometry x="1170" y="160" width="100" height="40" as="geometry" />
        </mxCell>
        <mxCell id="BXpB28k5xFH0rU9Z3lLQ-61" value="" style="endArrow=none;html=1;rounded=0;entryX=1;entryY=1;entryDx=0;entryDy=0;exitX=0;exitY=0;exitDx=0;exitDy=0;" parent="1" source="BXpB28k5xFH0rU9Z3lLQ-60" target="BXpB28k5xFH0rU9Z3lLQ-63" edge="1">
          <mxGeometry width="50" height="50" relative="1" as="geometry">
            <mxPoint x="1180" y="140" as="sourcePoint" />
            <mxPoint x="1610" y="326" as="targetPoint" />
          </mxGeometry>
        </mxCell>
        <mxCell id="BXpB28k5xFH0rU9Z3lLQ-62" value="Description" style="ellipse;whiteSpace=wrap;html=1;align=center;" parent="1" vertex="1">
          <mxGeometry x="1280" y="226" width="100" height="40" as="geometry" />
        </mxCell>
        <mxCell id="BXpB28k5xFH0rU9Z3lLQ-63" value="&lt;u&gt;Category_ID&lt;/u&gt;" style="ellipse;whiteSpace=wrap;html=1;align=center;" parent="1" vertex="1">
          <mxGeometry x="1060" y="111" width="100" height="40" as="geometry" />
        </mxCell>
        <mxCell id="BXpB28k5xFH0rU9Z3lLQ-66" value="" style="endArrow=none;html=1;rounded=0;exitX=0.252;exitY=0.035;exitDx=0;exitDy=0;entryX=1;entryY=1;entryDx=0;entryDy=0;exitPerimeter=0;" parent="1" source="BXpB28k5xFH0rU9Z3lLQ-62" target="BXpB28k5xFH0rU9Z3lLQ-60" edge="1">
          <mxGeometry width="50" height="50" relative="1" as="geometry">
            <mxPoint x="1340" y="249" as="sourcePoint" />
            <mxPoint x="1342" y="186" as="targetPoint" />
          </mxGeometry>
        </mxCell>
        <mxCell id="BXpB28k5xFH0rU9Z3lLQ-67" value="" style="endArrow=none;html=1;rounded=0;exitX=1;exitY=0;exitDx=0;exitDy=0;entryX=0;entryY=1;entryDx=0;entryDy=0;" parent="1" source="BXpB28k5xFH0rU9Z3lLQ-59" target="BXpB28k5xFH0rU9Z3lLQ-60" edge="1">
          <mxGeometry width="50" height="50" relative="1" as="geometry">
            <mxPoint x="1270" y="379" as="sourcePoint" />
            <mxPoint x="1272" y="316" as="targetPoint" />
          </mxGeometry>
        </mxCell>
        <mxCell id="BXpB28k5xFH0rU9Z3lLQ-68" value="Name" style="ellipse;whiteSpace=wrap;html=1;align=center;" parent="1" vertex="1">
          <mxGeometry x="1070" y="523" width="100" height="40" as="geometry" />
        </mxCell>
        <mxCell id="BXpB28k5xFH0rU9Z3lLQ-69" value="Vendor" style="whiteSpace=wrap;html=1;align=center;" parent="1" vertex="1">
          <mxGeometry x="1180" y="468" width="100" height="40" as="geometry" />
        </mxCell>
        <mxCell id="BXpB28k5xFH0rU9Z3lLQ-70" value="" style="endArrow=none;html=1;rounded=0;entryX=1;entryY=1;entryDx=0;entryDy=0;exitX=0;exitY=0;exitDx=0;exitDy=0;" parent="1" source="BXpB28k5xFH0rU9Z3lLQ-69" target="BXpB28k5xFH0rU9Z3lLQ-72" edge="1">
          <mxGeometry width="50" height="50" relative="1" as="geometry">
            <mxPoint x="1160" y="470" as="sourcePoint" />
            <mxPoint x="1620" y="616" as="targetPoint" />
          </mxGeometry>
        </mxCell>
        <mxCell id="BXpB28k5xFH0rU9Z3lLQ-71" value="Contact_Address" style="ellipse;whiteSpace=wrap;html=1;align=center;" parent="1" vertex="1">
          <mxGeometry x="1280" y="520" width="100" height="40" as="geometry" />
        </mxCell>
        <mxCell id="BXpB28k5xFH0rU9Z3lLQ-72" value="&lt;u&gt;Vendor_ID&lt;/u&gt;" style="ellipse;whiteSpace=wrap;html=1;align=center;" parent="1" vertex="1">
          <mxGeometry x="1070" y="410" width="100" height="40" as="geometry" />
        </mxCell>
        <mxCell id="BXpB28k5xFH0rU9Z3lLQ-73" value="" style="endArrow=none;html=1;rounded=0;exitX=0.252;exitY=0.035;exitDx=0;exitDy=0;exitPerimeter=0;entryX=1;entryY=1;entryDx=0;entryDy=0;" parent="1" source="BXpB28k5xFH0rU9Z3lLQ-71" target="BXpB28k5xFH0rU9Z3lLQ-69" edge="1">
          <mxGeometry width="50" height="50" relative="1" as="geometry">
            <mxPoint x="1350" y="539" as="sourcePoint" />
            <mxPoint x="1310" y="480" as="targetPoint" />
          </mxGeometry>
        </mxCell>
        <mxCell id="BXpB28k5xFH0rU9Z3lLQ-74" value="" style="endArrow=none;html=1;rounded=0;exitX=1;exitY=0;exitDx=0;exitDy=0;entryX=0;entryY=1;entryDx=0;entryDy=0;" parent="1" source="BXpB28k5xFH0rU9Z3lLQ-68" target="BXpB28k5xFH0rU9Z3lLQ-69" edge="1">
          <mxGeometry width="50" height="50" relative="1" as="geometry">
            <mxPoint x="1280" y="669" as="sourcePoint" />
            <mxPoint x="1160" y="510" as="targetPoint" />
          </mxGeometry>
        </mxCell>
        <mxCell id="BXpB28k5xFH0rU9Z3lLQ-75" value="" style="endArrow=ERmandOne;html=1;rounded=0;exitX=0.497;exitY=0.157;exitDx=0;exitDy=0;exitPerimeter=0;endFill=0;entryX=0.5;entryY=1;entryDx=0;entryDy=0;" parent="1" source="BXpB28k5xFH0rU9Z3lLQ-77" target="BXpB28k5xFH0rU9Z3lLQ-2" edge="1">
          <mxGeometry width="50" height="50" relative="1" as="geometry">
            <mxPoint x="220" y="320" as="sourcePoint" />
            <mxPoint x="220" y="201" as="targetPoint" />
          </mxGeometry>
        </mxCell>
        <mxCell id="BXpB28k5xFH0rU9Z3lLQ-77" value="can place" style="shape=rhombus;perimeter=rhombusPerimeter;whiteSpace=wrap;html=1;align=center;" parent="1" vertex="1">
          <mxGeometry x="190" y="331" width="100" height="40" as="geometry" />
        </mxCell>
        <mxCell id="BXpB28k5xFH0rU9Z3lLQ-78" value="" style="endArrow=none;html=1;rounded=0;exitX=0.5;exitY=0;exitDx=0;exitDy=0;entryX=0.51;entryY=0.89;entryDx=0;entryDy=0;entryPerimeter=0;endFill=0;startFill=0;startArrow=ERoneToMany;" parent="1" source="BXpB28k5xFH0rU9Z3lLQ-32" target="BXpB28k5xFH0rU9Z3lLQ-77" edge="1">
          <mxGeometry width="50" height="50" relative="1" as="geometry">
            <mxPoint x="190" y="528" as="sourcePoint" />
            <mxPoint x="190" y="400" as="targetPoint" />
          </mxGeometry>
        </mxCell>
        <mxCell id="BXpB28k5xFH0rU9Z3lLQ-79" value="Include" style="shape=rhombus;perimeter=rhombusPerimeter;whiteSpace=wrap;html=1;align=center;" parent="1" vertex="1">
          <mxGeometry x="400" y="500" width="100" height="40" as="geometry" />
        </mxCell>
        <mxCell id="BXpB28k5xFH0rU9Z3lLQ-80" value="" style="endArrow=ERmandOne;html=1;rounded=0;endFill=0;entryX=1;entryY=0.5;entryDx=0;entryDy=0;exitX=0;exitY=0.5;exitDx=0;exitDy=0;" parent="1" source="BXpB28k5xFH0rU9Z3lLQ-79" target="BXpB28k5xFH0rU9Z3lLQ-32" edge="1">
          <mxGeometry width="50" height="50" relative="1" as="geometry">
            <mxPoint x="390" y="530" as="sourcePoint" />
            <mxPoint x="330" y="500" as="targetPoint" />
          </mxGeometry>
        </mxCell>
        <mxCell id="BXpB28k5xFH0rU9Z3lLQ-81" value="" style="endArrow=none;html=1;rounded=0;endFill=0;startFill=0;startArrow=ERoneToMany;exitX=0;exitY=0.5;exitDx=0;exitDy=0;entryX=1;entryY=0.5;entryDx=0;entryDy=0;" parent="1" source="BXpB28k5xFH0rU9Z3lLQ-49" target="BXpB28k5xFH0rU9Z3lLQ-79" edge="1">
          <mxGeometry width="50" height="50" relative="1" as="geometry">
            <mxPoint x="700" y="521" as="sourcePoint" />
            <mxPoint x="500" y="550" as="targetPoint" />
          </mxGeometry>
        </mxCell>
        <mxCell id="BXpB28k5xFH0rU9Z3lLQ-83" value="can appear" style="shape=rhombus;perimeter=rhombusPerimeter;whiteSpace=wrap;html=1;align=center;" parent="1" vertex="1">
          <mxGeometry x="620" y="321" width="100" height="40" as="geometry" />
        </mxCell>
        <mxCell id="BXpB28k5xFH0rU9Z3lLQ-84" value="" style="endArrow=none;html=1;rounded=0;entryX=0.51;entryY=0.89;entryDx=0;entryDy=0;entryPerimeter=0;endFill=0;startFill=0;startArrow=ERoneToMany;exitX=0.5;exitY=0;exitDx=0;exitDy=0;" parent="1" source="BXpB28k5xFH0rU9Z3lLQ-49" target="BXpB28k5xFH0rU9Z3lLQ-83" edge="1">
          <mxGeometry width="50" height="50" relative="1" as="geometry">
            <mxPoint x="671" y="500" as="sourcePoint" />
            <mxPoint x="660" y="395" as="targetPoint" />
          </mxGeometry>
        </mxCell>
        <mxCell id="BXpB28k5xFH0rU9Z3lLQ-85" value="" style="endArrow=ERmandOne;html=1;rounded=0;exitX=0.5;exitY=0;exitDx=0;exitDy=0;endFill=0;entryX=0.38;entryY=1.025;entryDx=0;entryDy=0;entryPerimeter=0;" parent="1" source="BXpB28k5xFH0rU9Z3lLQ-83" target="BXpB28k5xFH0rU9Z3lLQ-15" edge="1">
          <mxGeometry width="50" height="50" relative="1" as="geometry">
            <mxPoint x="660" y="395" as="sourcePoint" />
            <mxPoint x="660" y="240" as="targetPoint" />
          </mxGeometry>
        </mxCell>
        <mxCell id="BXpB28k5xFH0rU9Z3lLQ-86" value="are" style="shape=rhombus;perimeter=rhombusPerimeter;whiteSpace=wrap;html=1;align=center;rotation=0;" parent="1" vertex="1">
          <mxGeometry x="870" y="340" width="100" height="40" as="geometry" />
        </mxCell>
        <mxCell id="BXpB28k5xFH0rU9Z3lLQ-87" value="" style="endArrow=none;html=1;rounded=0;endFill=0;startFill=0;startArrow=ERoneToMany;entryX=0;entryY=0.5;entryDx=0;entryDy=0;exitX=1;exitY=0.75;exitDx=0;exitDy=0;" parent="1" source="BXpB28k5xFH0rU9Z3lLQ-15" target="BXpB28k5xFH0rU9Z3lLQ-86" edge="1">
          <mxGeometry width="50" height="50" relative="1" as="geometry">
            <mxPoint x="760" y="210" as="sourcePoint" />
            <mxPoint x="840" y="390" as="targetPoint" />
            <Array as="points">
              <mxPoint x="760" y="200" />
              <mxPoint x="760" y="360" />
            </Array>
          </mxGeometry>
        </mxCell>
        <mxCell id="BXpB28k5xFH0rU9Z3lLQ-88" value="" style="endArrow=ERmandOne;html=1;rounded=0;endFill=0;exitX=1;exitY=0.5;exitDx=0;exitDy=0;entryX=0;entryY=0.5;entryDx=0;entryDy=0;" parent="1" source="BXpB28k5xFH0rU9Z3lLQ-86" target="BXpB28k5xFH0rU9Z3lLQ-69" edge="1">
          <mxGeometry width="50" height="50" relative="1" as="geometry">
            <mxPoint x="1000" y="360" as="sourcePoint" />
            <mxPoint x="1140" y="480" as="targetPoint" />
            <Array as="points">
              <mxPoint x="970" y="490" />
            </Array>
          </mxGeometry>
        </mxCell>
        <mxCell id="BXpB28k5xFH0rU9Z3lLQ-89" value="comment" style="ellipse;whiteSpace=wrap;html=1;align=center;" parent="1" vertex="1">
          <mxGeometry x="490" y="-227" width="100" height="40" as="geometry" />
        </mxCell>
        <mxCell id="BXpB28k5xFH0rU9Z3lLQ-90" value="Review" style="whiteSpace=wrap;html=1;align=center;" parent="1" vertex="1">
          <mxGeometry x="610" y="-150" width="100" height="40" as="geometry" />
        </mxCell>
        <mxCell id="BXpB28k5xFH0rU9Z3lLQ-91" value="" style="endArrow=none;html=1;rounded=0;exitX=0.332;exitY=-0.055;exitDx=0;exitDy=0;entryX=1;entryY=1;entryDx=0;entryDy=0;exitPerimeter=0;" parent="1" source="BXpB28k5xFH0rU9Z3lLQ-90" target="BXpB28k5xFH0rU9Z3lLQ-94" edge="1">
          <mxGeometry width="50" height="50" relative="1" as="geometry">
            <mxPoint x="910" y="-20" as="sourcePoint" />
            <mxPoint x="1050" y="10" as="targetPoint" />
          </mxGeometry>
        </mxCell>
        <mxCell id="BXpB28k5xFH0rU9Z3lLQ-92" value="Recieve_date" style="ellipse;whiteSpace=wrap;html=1;align=center;" parent="1" vertex="1">
          <mxGeometry x="465" y="-160" width="100" height="40" as="geometry" />
        </mxCell>
        <mxCell id="BXpB28k5xFH0rU9Z3lLQ-94" value="&lt;u&gt;Review_ID&lt;/u&gt;" style="ellipse;whiteSpace=wrap;html=1;align=center;" parent="1" vertex="1">
          <mxGeometry x="530" y="-280" width="100" height="40" as="geometry" />
        </mxCell>
        <mxCell id="BXpB28k5xFH0rU9Z3lLQ-95" value="Rating" style="ellipse;whiteSpace=wrap;html=1;align=center;" parent="1" vertex="1">
          <mxGeometry x="750" y="-160" width="100" height="40" as="geometry" />
        </mxCell>
        <mxCell id="BXpB28k5xFH0rU9Z3lLQ-96" value="" style="endArrow=none;html=1;rounded=0;entryX=0.084;entryY=0.295;entryDx=0;entryDy=0;entryPerimeter=0;exitX=1;exitY=0.5;exitDx=0;exitDy=0;" parent="1" source="BXpB28k5xFH0rU9Z3lLQ-90" target="BXpB28k5xFH0rU9Z3lLQ-95" edge="1">
          <mxGeometry width="50" height="50" relative="1" as="geometry">
            <mxPoint x="710" y="-120" as="sourcePoint" />
            <mxPoint x="747.5999999999999" y="-171" as="targetPoint" />
          </mxGeometry>
        </mxCell>
        <mxCell id="BXpB28k5xFH0rU9Z3lLQ-98" value="" style="endArrow=none;html=1;rounded=0;exitX=1;exitY=0.5;exitDx=0;exitDy=0;entryX=0;entryY=0.5;entryDx=0;entryDy=0;" parent="1" source="BXpB28k5xFH0rU9Z3lLQ-92" target="BXpB28k5xFH0rU9Z3lLQ-90" edge="1">
          <mxGeometry width="50" height="50" relative="1" as="geometry">
            <mxPoint x="630" y="63" as="sourcePoint" />
            <mxPoint x="632" as="targetPoint" />
          </mxGeometry>
        </mxCell>
        <mxCell id="BXpB28k5xFH0rU9Z3lLQ-99" value="" style="endArrow=none;html=1;rounded=0;exitX=0.932;exitY=0.745;exitDx=0;exitDy=0;entryX=0;entryY=0;entryDx=0;entryDy=0;exitPerimeter=0;" parent="1" source="BXpB28k5xFH0rU9Z3lLQ-89" target="BXpB28k5xFH0rU9Z3lLQ-90" edge="1">
          <mxGeometry width="50" height="50" relative="1" as="geometry">
            <mxPoint x="710" y="63" as="sourcePoint" />
            <mxPoint x="712" as="targetPoint" />
          </mxGeometry>
        </mxCell>
        <mxCell id="BXpB28k5xFH0rU9Z3lLQ-100" value="Customer_ID" style="ellipse;whiteSpace=wrap;html=1;align=center;" parent="1" vertex="1">
          <mxGeometry x="730" y="-232" width="100" height="40" as="geometry" />
        </mxCell>
        <mxCell id="BXpB28k5xFH0rU9Z3lLQ-101" value="Product_ID" style="ellipse;whiteSpace=wrap;html=1;align=center;" parent="1" vertex="1">
          <mxGeometry x="680" y="-280" width="100" height="40" as="geometry" />
        </mxCell>
        <mxCell id="BXpB28k5xFH0rU9Z3lLQ-102" value="" style="endArrow=none;html=1;rounded=0;exitX=0.75;exitY=0;exitDx=0;exitDy=0;entryX=0.224;entryY=0.955;entryDx=0;entryDy=0;entryPerimeter=0;" parent="1" source="BXpB28k5xFH0rU9Z3lLQ-90" target="BXpB28k5xFH0rU9Z3lLQ-101" edge="1">
          <mxGeometry width="50" height="50" relative="1" as="geometry">
            <mxPoint x="756" y="-185" as="sourcePoint" />
            <mxPoint x="670" y="-220" as="targetPoint" />
          </mxGeometry>
        </mxCell>
        <mxCell id="BXpB28k5xFH0rU9Z3lLQ-103" value="" style="endArrow=none;html=1;rounded=0;exitX=1;exitY=0;exitDx=0;exitDy=0;entryX=0.068;entryY=0.675;entryDx=0;entryDy=0;entryPerimeter=0;" parent="1" source="BXpB28k5xFH0rU9Z3lLQ-90" target="BXpB28k5xFH0rU9Z3lLQ-100" edge="1">
          <mxGeometry width="50" height="50" relative="1" as="geometry">
            <mxPoint x="796" y="-145" as="sourcePoint" />
            <mxPoint x="710" y="-180" as="targetPoint" />
          </mxGeometry>
        </mxCell>
        <mxCell id="BXpB28k5xFH0rU9Z3lLQ-107" value="FK" style="text;html=1;align=center;verticalAlign=middle;resizable=0;points=[];autosize=1;strokeColor=none;fillColor=none;" parent="1" vertex="1">
          <mxGeometry x="820" y="-240" width="40" height="30" as="geometry" />
        </mxCell>
        <mxCell id="BXpB28k5xFH0rU9Z3lLQ-108" value="FK" style="text;html=1;align=center;verticalAlign=middle;resizable=0;points=[];autosize=1;strokeColor=none;fillColor=none;" parent="1" vertex="1">
          <mxGeometry x="750" y="-300" width="40" height="30" as="geometry" />
        </mxCell>
        <mxCell id="BXpB28k5xFH0rU9Z3lLQ-116" value="" style="endArrow=ERmandOne;html=1;rounded=0;endFill=0;entryX=0.388;entryY=0.065;entryDx=0;entryDy=0;entryPerimeter=0;exitX=0.5;exitY=1;exitDx=0;exitDy=0;" parent="1" source="BXpB28k5xFH0rU9Z3lLQ-117" target="BXpB28k5xFH0rU9Z3lLQ-15" edge="1">
          <mxGeometry width="50" height="50" relative="1" as="geometry">
            <mxPoint x="674" y="50" as="sourcePoint" />
            <mxPoint x="643" y="60" as="targetPoint" />
          </mxGeometry>
        </mxCell>
        <mxCell id="BXpB28k5xFH0rU9Z3lLQ-117" value="can have" style="shape=rhombus;perimeter=rhombusPerimeter;whiteSpace=wrap;html=1;align=center;" parent="1" vertex="1">
          <mxGeometry x="620" y="10" width="100" height="40" as="geometry" />
        </mxCell>
        <mxCell id="BXpB28k5xFH0rU9Z3lLQ-118" value="" style="endArrow=none;html=1;rounded=0;endFill=0;startFill=0;startArrow=ERoneToMany;exitX=0.596;exitY=1.005;exitDx=0;exitDy=0;exitPerimeter=0;" parent="1" source="BXpB28k5xFH0rU9Z3lLQ-90" edge="1">
          <mxGeometry width="50" height="50" relative="1" as="geometry">
            <mxPoint x="650" y="73" as="sourcePoint" />
            <mxPoint x="670" y="10" as="targetPoint" />
          </mxGeometry>
        </mxCell>
        <mxCell id="BXpB28k5xFH0rU9Z3lLQ-119" value="can write" style="shape=rhombus;perimeter=rhombusPerimeter;whiteSpace=wrap;html=1;align=center;rotation=0;" parent="1" vertex="1">
          <mxGeometry x="405" y="-22" width="100" height="50" as="geometry" />
        </mxCell>
        <mxCell id="BXpB28k5xFH0rU9Z3lLQ-120" value="" style="endArrow=ERmandOne;html=1;rounded=0;endFill=0;entryX=0.9;entryY=-0.025;entryDx=0;entryDy=0;entryPerimeter=0;exitX=0;exitY=0.5;exitDx=0;exitDy=0;" parent="1" source="BXpB28k5xFH0rU9Z3lLQ-119" target="BXpB28k5xFH0rU9Z3lLQ-2" edge="1">
          <mxGeometry width="50" height="50" relative="1" as="geometry">
            <mxPoint x="331" y="-10" as="sourcePoint" />
            <mxPoint x="330" y="113" as="targetPoint" />
            <Array as="points">
              <mxPoint x="280" y="3" />
            </Array>
          </mxGeometry>
        </mxCell>
        <mxCell id="BXpB28k5xFH0rU9Z3lLQ-121" value="" style="endArrow=none;html=1;rounded=0;endFill=0;startFill=0;startArrow=ERoneToMany;exitX=0.084;exitY=0.985;exitDx=0;exitDy=0;exitPerimeter=0;entryX=1;entryY=0.5;entryDx=0;entryDy=0;" parent="1" source="BXpB28k5xFH0rU9Z3lLQ-90" target="BXpB28k5xFH0rU9Z3lLQ-119" edge="1">
          <mxGeometry width="50" height="50" relative="1" as="geometry">
            <mxPoint x="540" y="-90" as="sourcePoint" />
            <mxPoint x="510" y="-30" as="targetPoint" />
            <Array as="points">
              <mxPoint x="618" y="3" />
            </Array>
          </mxGeometry>
        </mxCell>
        <mxCell id="BXpB28k5xFH0rU9Z3lLQ-123" value="Refund" style="ellipse;whiteSpace=wrap;html=1;align=center;" parent="1" vertex="1">
          <mxGeometry x="-540" y="456" width="100" height="40" as="geometry" />
        </mxCell>
        <mxCell id="BXpB28k5xFH0rU9Z3lLQ-124" value="Payment" style="whiteSpace=wrap;html=1;align=center;" parent="1" vertex="1">
          <mxGeometry x="-400" y="510" width="100" height="40" as="geometry" />
        </mxCell>
        <mxCell id="BXpB28k5xFH0rU9Z3lLQ-125" value="" style="endArrow=none;html=1;rounded=0;exitX=0.25;exitY=0;exitDx=0;exitDy=0;entryX=0.42;entryY=0.935;entryDx=0;entryDy=0;entryPerimeter=0;" parent="1" source="BXpB28k5xFH0rU9Z3lLQ-124" target="BXpB28k5xFH0rU9Z3lLQ-127" edge="1">
          <mxGeometry width="50" height="50" relative="1" as="geometry">
            <mxPoint x="-100" y="640" as="sourcePoint" />
            <mxPoint x="40" y="670" as="targetPoint" />
          </mxGeometry>
        </mxCell>
        <mxCell id="BXpB28k5xFH0rU9Z3lLQ-126" value="Status" style="ellipse;whiteSpace=wrap;html=1;align=center;" parent="1" vertex="1">
          <mxGeometry x="-550" y="510" width="100" height="40" as="geometry" />
        </mxCell>
        <mxCell id="BXpB28k5xFH0rU9Z3lLQ-127" value="&lt;u&gt;Payment_ID&lt;/u&gt;" style="ellipse;whiteSpace=wrap;html=1;align=center;" parent="1" vertex="1">
          <mxGeometry x="-500" y="380" width="100" height="40" as="geometry" />
        </mxCell>
        <mxCell id="BXpB28k5xFH0rU9Z3lLQ-128" value="Amount" style="ellipse;whiteSpace=wrap;html=1;align=center;" parent="1" vertex="1">
          <mxGeometry x="-280" y="580" width="100" height="40" as="geometry" />
        </mxCell>
        <mxCell id="BXpB28k5xFH0rU9Z3lLQ-129" value="" style="endArrow=none;html=1;rounded=0;entryX=0;entryY=0;entryDx=0;entryDy=0;exitX=1;exitY=1;exitDx=0;exitDy=0;" parent="1" source="BXpB28k5xFH0rU9Z3lLQ-124" target="BXpB28k5xFH0rU9Z3lLQ-128" edge="1">
          <mxGeometry width="50" height="50" relative="1" as="geometry">
            <mxPoint x="-350" y="620" as="sourcePoint" />
            <mxPoint x="-310" y="610" as="targetPoint" />
            <Array as="points" />
          </mxGeometry>
        </mxCell>
        <mxCell id="BXpB28k5xFH0rU9Z3lLQ-130" value="" style="endArrow=none;html=1;rounded=0;exitX=1;exitY=0.5;exitDx=0;exitDy=0;entryX=0;entryY=0.5;entryDx=0;entryDy=0;" parent="1" source="BXpB28k5xFH0rU9Z3lLQ-126" target="BXpB28k5xFH0rU9Z3lLQ-124" edge="1">
          <mxGeometry width="50" height="50" relative="1" as="geometry">
            <mxPoint x="-380" y="723" as="sourcePoint" />
            <mxPoint x="-400" y="530" as="targetPoint" />
          </mxGeometry>
        </mxCell>
        <mxCell id="BXpB28k5xFH0rU9Z3lLQ-131" value="" style="endArrow=none;html=1;rounded=0;exitX=0.932;exitY=0.745;exitDx=0;exitDy=0;entryX=0;entryY=0;entryDx=0;entryDy=0;exitPerimeter=0;" parent="1" source="BXpB28k5xFH0rU9Z3lLQ-123" target="BXpB28k5xFH0rU9Z3lLQ-124" edge="1">
          <mxGeometry width="50" height="50" relative="1" as="geometry">
            <mxPoint x="-300" y="723" as="sourcePoint" />
            <mxPoint x="-298" y="660" as="targetPoint" />
          </mxGeometry>
        </mxCell>
        <mxCell id="BXpB28k5xFH0rU9Z3lLQ-132" value="Payment_date" style="ellipse;whiteSpace=wrap;html=1;align=center;" parent="1" vertex="1">
          <mxGeometry x="-270" y="456" width="100" height="40" as="geometry" />
        </mxCell>
        <mxCell id="BXpB28k5xFH0rU9Z3lLQ-133" value="Order_ID" style="ellipse;whiteSpace=wrap;html=1;align=center;" parent="1" vertex="1">
          <mxGeometry x="-330" y="380" width="100" height="40" as="geometry" />
        </mxCell>
        <mxCell id="BXpB28k5xFH0rU9Z3lLQ-134" value="" style="endArrow=none;html=1;rounded=0;entryX=0.224;entryY=0.955;entryDx=0;entryDy=0;entryPerimeter=0;exitX=0.5;exitY=0;exitDx=0;exitDy=0;" parent="1" source="BXpB28k5xFH0rU9Z3lLQ-124" target="BXpB28k5xFH0rU9Z3lLQ-133" edge="1">
          <mxGeometry width="50" height="50" relative="1" as="geometry">
            <mxPoint x="-350" y="490" as="sourcePoint" />
            <mxPoint x="-340" y="440" as="targetPoint" />
          </mxGeometry>
        </mxCell>
        <mxCell id="BXpB28k5xFH0rU9Z3lLQ-135" value="" style="endArrow=none;html=1;rounded=0;exitX=1;exitY=0;exitDx=0;exitDy=0;entryX=0;entryY=1;entryDx=0;entryDy=0;" parent="1" source="BXpB28k5xFH0rU9Z3lLQ-124" target="BXpB28k5xFH0rU9Z3lLQ-132" edge="1">
          <mxGeometry width="50" height="50" relative="1" as="geometry">
            <mxPoint x="-214" y="515" as="sourcePoint" />
            <mxPoint x="-290" y="470" as="targetPoint" />
          </mxGeometry>
        </mxCell>
        <mxCell id="BXpB28k5xFH0rU9Z3lLQ-137" value="FK" style="text;html=1;align=center;verticalAlign=middle;resizable=0;points=[];autosize=1;strokeColor=none;fillColor=none;" parent="1" vertex="1">
          <mxGeometry x="-350" y="360" width="40" height="30" as="geometry" />
        </mxCell>
        <mxCell id="BXpB28k5xFH0rU9Z3lLQ-138" value="can have" style="shape=rhombus;perimeter=rhombusPerimeter;whiteSpace=wrap;html=1;align=center;" parent="1" vertex="1">
          <mxGeometry x="-120" y="508" width="100" height="40" as="geometry" />
        </mxCell>
        <mxCell id="BXpB28k5xFH0rU9Z3lLQ-140" value="" style="endArrow=ERmandOne;html=1;rounded=0;endFill=0;entryX=1;entryY=0.5;entryDx=0;entryDy=0;exitX=0;exitY=0.5;exitDx=0;exitDy=0;" parent="1" source="BXpB28k5xFH0rU9Z3lLQ-138" target="BXpB28k5xFH0rU9Z3lLQ-124" edge="1">
          <mxGeometry width="50" height="50" relative="1" as="geometry">
            <mxPoint x="-100" y="600" as="sourcePoint" />
            <mxPoint x="-150" y="610" as="targetPoint" />
          </mxGeometry>
        </mxCell>
        <mxCell id="BXpB28k5xFH0rU9Z3lLQ-141" value="" style="endArrow=ERmandOne;html=1;rounded=0;endFill=0;exitX=1;exitY=0.5;exitDx=0;exitDy=0;entryX=0;entryY=0.75;entryDx=0;entryDy=0;" parent="1" source="BXpB28k5xFH0rU9Z3lLQ-138" target="BXpB28k5xFH0rU9Z3lLQ-32" edge="1">
          <mxGeometry width="50" height="50" relative="1" as="geometry">
            <mxPoint x="-10" y="570" as="sourcePoint" />
            <mxPoint x="200" y="540" as="targetPoint" />
            <Array as="points" />
          </mxGeometry>
        </mxCell>
        <mxCell id="BXpB28k5xFH0rU9Z3lLQ-142" value="Reason" style="ellipse;whiteSpace=wrap;html=1;align=center;" parent="1" vertex="1">
          <mxGeometry x="-590" y="150" width="100" height="40" as="geometry" />
        </mxCell>
        <mxCell id="BXpB28k5xFH0rU9Z3lLQ-143" value="Refund" style="whiteSpace=wrap;html=1;align=center;" parent="1" vertex="1">
          <mxGeometry x="-480" y="200" width="100" height="40" as="geometry" />
        </mxCell>
        <mxCell id="BXpB28k5xFH0rU9Z3lLQ-144" value="" style="endArrow=none;html=1;rounded=0;exitX=0.5;exitY=0;exitDx=0;exitDy=0;entryX=0.42;entryY=0.935;entryDx=0;entryDy=0;entryPerimeter=0;" parent="1" source="BXpB28k5xFH0rU9Z3lLQ-143" target="BXpB28k5xFH0rU9Z3lLQ-147" edge="1">
          <mxGeometry width="50" height="50" relative="1" as="geometry">
            <mxPoint x="-180" y="330" as="sourcePoint" />
            <mxPoint x="-40" y="360" as="targetPoint" />
          </mxGeometry>
        </mxCell>
        <mxCell id="BXpB28k5xFH0rU9Z3lLQ-145" value="Amount" style="ellipse;whiteSpace=wrap;html=1;align=center;" parent="1" vertex="1">
          <mxGeometry x="-600" y="251" width="100" height="40" as="geometry" />
        </mxCell>
        <mxCell id="BXpB28k5xFH0rU9Z3lLQ-146" value="Refund_date" style="ellipse;whiteSpace=wrap;html=1;align=center;" parent="1" vertex="1">
          <mxGeometry x="-430" y="260" width="100" height="40" as="geometry" />
        </mxCell>
        <mxCell id="BXpB28k5xFH0rU9Z3lLQ-147" value="&lt;u&gt;Refund_ID&lt;/u&gt;" style="ellipse;whiteSpace=wrap;html=1;align=center;" parent="1" vertex="1">
          <mxGeometry x="-470" y="100" width="100" height="40" as="geometry" />
        </mxCell>
        <mxCell id="BXpB28k5xFH0rU9Z3lLQ-148" value="Order_ID" style="ellipse;whiteSpace=wrap;html=1;align=center;" parent="1" vertex="1">
          <mxGeometry x="-350" y="120" width="100" height="40" as="geometry" />
        </mxCell>
        <mxCell id="BXpB28k5xFH0rU9Z3lLQ-149" value="" style="endArrow=none;html=1;rounded=0;entryX=0;entryY=1;entryDx=0;entryDy=0;exitX=1;exitY=0;exitDx=0;exitDy=0;" parent="1" source="BXpB28k5xFH0rU9Z3lLQ-143" target="BXpB28k5xFH0rU9Z3lLQ-148" edge="1">
          <mxGeometry width="50" height="50" relative="1" as="geometry">
            <mxPoint x="-360" y="200" as="sourcePoint" />
            <mxPoint x="-342.4000000000001" y="159" as="targetPoint" />
            <Array as="points" />
          </mxGeometry>
        </mxCell>
        <mxCell id="BXpB28k5xFH0rU9Z3lLQ-150" value="" style="endArrow=none;html=1;rounded=0;exitX=0.252;exitY=0.035;exitDx=0;exitDy=0;entryX=0.5;entryY=1;entryDx=0;entryDy=0;exitPerimeter=0;" parent="1" source="BXpB28k5xFH0rU9Z3lLQ-146" target="BXpB28k5xFH0rU9Z3lLQ-143" edge="1">
          <mxGeometry width="50" height="50" relative="1" as="geometry">
            <mxPoint x="-310" y="283" as="sourcePoint" />
            <mxPoint x="-308" y="220" as="targetPoint" />
          </mxGeometry>
        </mxCell>
        <mxCell id="BXpB28k5xFH0rU9Z3lLQ-151" value="" style="endArrow=none;html=1;rounded=0;exitX=0.924;exitY=0.335;exitDx=0;exitDy=0;entryX=0;entryY=1;entryDx=0;entryDy=0;exitPerimeter=0;" parent="1" source="BXpB28k5xFH0rU9Z3lLQ-145" target="BXpB28k5xFH0rU9Z3lLQ-143" edge="1">
          <mxGeometry width="50" height="50" relative="1" as="geometry">
            <mxPoint x="-460" y="413" as="sourcePoint" />
            <mxPoint x="-458" y="350" as="targetPoint" />
          </mxGeometry>
        </mxCell>
        <mxCell id="BXpB28k5xFH0rU9Z3lLQ-152" value="" style="endArrow=none;html=1;rounded=0;exitX=0.932;exitY=0.745;exitDx=0;exitDy=0;exitPerimeter=0;entryX=0;entryY=0;entryDx=0;entryDy=0;" parent="1" source="BXpB28k5xFH0rU9Z3lLQ-142" target="BXpB28k5xFH0rU9Z3lLQ-143" edge="1">
          <mxGeometry width="50" height="50" relative="1" as="geometry">
            <mxPoint x="-380" y="413" as="sourcePoint" />
            <mxPoint x="-500" y="210" as="targetPoint" />
          </mxGeometry>
        </mxCell>
        <mxCell id="BXpB28k5xFH0rU9Z3lLQ-154" value="FK" style="text;html=1;align=center;verticalAlign=middle;resizable=0;points=[];autosize=1;strokeColor=none;fillColor=none;" parent="1" vertex="1">
          <mxGeometry x="-280" y="100" width="40" height="30" as="geometry" />
        </mxCell>
        <mxCell id="BXpB28k5xFH0rU9Z3lLQ-155" value="may have" style="shape=rhombus;perimeter=rhombusPerimeter;whiteSpace=wrap;html=1;align=center;rotation=0;" parent="1" vertex="1">
          <mxGeometry x="-150" y="321" width="100" height="40" as="geometry" />
        </mxCell>
        <mxCell id="BXpB28k5xFH0rU9Z3lLQ-156" value="" style="endArrow=ERmandOne;html=1;rounded=0;endFill=0;entryX=1;entryY=0.5;entryDx=0;entryDy=0;exitX=0.5;exitY=0;exitDx=0;exitDy=0;" parent="1" source="BXpB28k5xFH0rU9Z3lLQ-155" target="BXpB28k5xFH0rU9Z3lLQ-143" edge="1">
          <mxGeometry width="50" height="50" relative="1" as="geometry">
            <mxPoint x="-101" y="204" as="sourcePoint" />
            <mxPoint x="-300" y="200" as="targetPoint" />
            <Array as="points">
              <mxPoint x="-100" y="220" />
            </Array>
          </mxGeometry>
        </mxCell>
        <mxCell id="BXpB28k5xFH0rU9Z3lLQ-157" value="" style="endArrow=ERmandOne;html=1;rounded=0;endFill=0;entryX=0;entryY=0.25;entryDx=0;entryDy=0;exitX=0.5;exitY=1;exitDx=0;exitDy=0;" parent="1" source="BXpB28k5xFH0rU9Z3lLQ-155" target="BXpB28k5xFH0rU9Z3lLQ-32" edge="1">
          <mxGeometry width="50" height="50" relative="1" as="geometry">
            <mxPoint x="-100" y="400" as="sourcePoint" />
            <mxPoint x="-160" y="220" as="targetPoint" />
            <Array as="points">
              <mxPoint x="-100" y="503" />
            </Array>
          </mxGeometry>
        </mxCell>
        <mxCell id="BXpB28k5xFH0rU9Z3lLQ-158" value="" style="endArrow=none;html=1;rounded=0;exitX=1;exitY=0.25;exitDx=0;exitDy=0;entryX=0;entryY=0.5;entryDx=0;entryDy=0;endFill=0;startFill=0;startArrow=ERoneToMany;" parent="1" source="BXpB28k5xFH0rU9Z3lLQ-15" target="BXpB28k5xFH0rU9Z3lLQ-159" edge="1">
          <mxGeometry width="50" height="50" relative="1" as="geometry">
            <mxPoint x="871" y="349" as="sourcePoint" />
            <mxPoint x="870" y="210" as="targetPoint" />
          </mxGeometry>
        </mxCell>
        <mxCell id="BXpB28k5xFH0rU9Z3lLQ-159" value="are" style="shape=rhombus;perimeter=rhombusPerimeter;whiteSpace=wrap;html=1;align=center;" parent="1" vertex="1">
          <mxGeometry x="910" y="160" width="100" height="40" as="geometry" />
        </mxCell>
        <mxCell id="BXpB28k5xFH0rU9Z3lLQ-160" value="" style="endArrow=ERmandOne;html=1;rounded=0;exitX=1;exitY=0.5;exitDx=0;exitDy=0;endFill=0;entryX=0;entryY=0.5;entryDx=0;entryDy=0;" parent="1" source="BXpB28k5xFH0rU9Z3lLQ-159" target="BXpB28k5xFH0rU9Z3lLQ-60" edge="1">
          <mxGeometry width="50" height="50" relative="1" as="geometry">
            <mxPoint x="940" y="215" as="sourcePoint" />
            <mxPoint x="1130" y="190" as="targetPoint" />
          </mxGeometry>
        </mxCell>
        <mxCell id="BXpB28k5xFH0rU9Z3lLQ-161" value="1" style="text;html=1;align=center;verticalAlign=middle;resizable=0;points=[];autosize=1;strokeColor=none;fillColor=none;" parent="1" vertex="1">
          <mxGeometry x="380" y="-30" width="30" height="30" as="geometry" />
        </mxCell>
        <mxCell id="BXpB28k5xFH0rU9Z3lLQ-162" value="N" style="text;html=1;align=center;verticalAlign=middle;resizable=0;points=[];autosize=1;strokeColor=none;fillColor=none;" parent="1" vertex="1">
          <mxGeometry x="500" y="-30" width="30" height="30" as="geometry" />
        </mxCell>
        <mxCell id="BXpB28k5xFH0rU9Z3lLQ-163" value="1" style="text;html=1;align=center;verticalAlign=middle;resizable=0;points=[];autosize=1;strokeColor=none;fillColor=none;" parent="1" vertex="1">
          <mxGeometry x="645" y="50" width="30" height="30" as="geometry" />
        </mxCell>
        <mxCell id="BXpB28k5xFH0rU9Z3lLQ-164" value="1" style="text;html=1;align=center;verticalAlign=middle;resizable=0;points=[];autosize=1;strokeColor=none;fillColor=none;" parent="1" vertex="1">
          <mxGeometry x="1000" y="151" width="30" height="30" as="geometry" />
        </mxCell>
        <mxCell id="BXpB28k5xFH0rU9Z3lLQ-165" value="1" style="text;html=1;align=center;verticalAlign=middle;resizable=0;points=[];autosize=1;strokeColor=none;fillColor=none;" parent="1" vertex="1">
          <mxGeometry x="945" y="375" width="30" height="30" as="geometry" />
        </mxCell>
        <mxCell id="BXpB28k5xFH0rU9Z3lLQ-166" value="1" style="text;html=1;align=center;verticalAlign=middle;resizable=0;points=[];autosize=1;strokeColor=none;fillColor=none;" parent="1" vertex="1">
          <mxGeometry x="670" y="300" width="30" height="30" as="geometry" />
        </mxCell>
        <mxCell id="BXpB28k5xFH0rU9Z3lLQ-167" value="1" style="text;html=1;align=center;verticalAlign=middle;resizable=0;points=[];autosize=1;strokeColor=none;fillColor=none;" parent="1" vertex="1">
          <mxGeometry x="390" y="490" width="30" height="30" as="geometry" />
        </mxCell>
        <mxCell id="BXpB28k5xFH0rU9Z3lLQ-168" value="1" style="text;html=1;align=center;verticalAlign=middle;resizable=0;points=[];autosize=1;strokeColor=none;fillColor=none;" parent="1" vertex="1">
          <mxGeometry x="-30" y="500" width="30" height="30" as="geometry" />
        </mxCell>
        <mxCell id="BXpB28k5xFH0rU9Z3lLQ-169" value="1" style="text;html=1;align=center;verticalAlign=middle;resizable=0;points=[];autosize=1;strokeColor=none;fillColor=none;" parent="1" vertex="1">
          <mxGeometry x="-140" y="499" width="30" height="30" as="geometry" />
        </mxCell>
        <mxCell id="BXpB28k5xFH0rU9Z3lLQ-170" value="1" style="text;html=1;align=center;verticalAlign=middle;resizable=0;points=[];autosize=1;strokeColor=none;fillColor=none;rotation=0;" parent="1" vertex="1">
          <mxGeometry x="-100" y="291" width="30" height="30" as="geometry" />
        </mxCell>
        <mxCell id="BXpB28k5xFH0rU9Z3lLQ-171" value="1" style="text;html=1;align=center;verticalAlign=middle;resizable=0;points=[];autosize=1;strokeColor=none;fillColor=none;rotation=0;" parent="1" vertex="1">
          <mxGeometry x="-100" y="368" width="30" height="30" as="geometry" />
        </mxCell>
        <mxCell id="BXpB28k5xFH0rU9Z3lLQ-172" value="N" style="text;html=1;align=center;verticalAlign=middle;resizable=0;points=[];autosize=1;strokeColor=none;fillColor=none;" parent="1" vertex="1">
          <mxGeometry x="500" y="490" width="30" height="30" as="geometry" />
        </mxCell>
        <mxCell id="BXpB28k5xFH0rU9Z3lLQ-173" value="N" style="text;html=1;align=center;verticalAlign=middle;resizable=0;points=[];autosize=1;strokeColor=none;fillColor=none;" parent="1" vertex="1">
          <mxGeometry x="670" y="361" width="30" height="30" as="geometry" />
        </mxCell>
        <mxCell id="BXpB28k5xFH0rU9Z3lLQ-174" value="N" style="text;html=1;align=center;verticalAlign=middle;resizable=0;points=[];autosize=1;strokeColor=none;fillColor=none;" parent="1" vertex="1">
          <mxGeometry x="210" y="370" width="30" height="30" as="geometry" />
        </mxCell>
        <mxCell id="BXpB28k5xFH0rU9Z3lLQ-175" value="N" style="text;html=1;align=center;verticalAlign=middle;resizable=0;points=[];autosize=1;strokeColor=none;fillColor=none;" parent="1" vertex="1">
          <mxGeometry x="850" y="331" width="30" height="30" as="geometry" />
        </mxCell>
        <mxCell id="BXpB28k5xFH0rU9Z3lLQ-176" value="N" style="text;html=1;align=center;verticalAlign=middle;resizable=0;points=[];autosize=1;strokeColor=none;fillColor=none;" parent="1" vertex="1">
          <mxGeometry x="880" y="155" width="30" height="30" as="geometry" />
        </mxCell>
        <mxCell id="BXpB28k5xFH0rU9Z3lLQ-177" value="1" style="text;html=1;align=center;verticalAlign=middle;resizable=0;points=[];autosize=1;strokeColor=none;fillColor=none;" parent="1" vertex="1">
          <mxGeometry x="210" y="301" width="30" height="30" as="geometry" />
        </mxCell>
        <mxCell id="avSevPTeQiPPSE2BHN-J-2" value="N" style="text;html=1;align=center;verticalAlign=middle;resizable=0;points=[];autosize=1;strokeColor=none;fillColor=none;" parent="1" vertex="1">
          <mxGeometry x="645" y="-22" width="30" height="30" as="geometry" />
        </mxCell>
      </root>
    </mxGraphModel>
  </diagram>
</mxfile>
